<?xml version="1.0" encoding="utf-8"?>
<!-- Generator: Adobe Illustrator 23.0.3, SVG Export Plug-In . SVG Version: 6.00 Build 0)  -->
<svg version="1.1" id="_x32_" xmlns="http://www.w3.org/2000/svg" xmlns:xlink="http://www.w3.org/1999/xlink" x="0px" y="0px"
	 viewBox="0 0 513 448.66" style="enable-background:new 0 0 513 448.66;" xml:space="preserve">
<style type="text/css">
	.st0{fill:#FFFFFF;stroke:#231815;stroke-width:2;stroke-miterlimit:10;}
</style>
<g>
	<path class="st0" d="M381.13,0.53c-77.99,1.5-116.16,56.7-124.63,106.88C248.03,57.22,209.86,2.03,131.87,0.53
		C59.96-0.86,0.5,54.46,0.5,155.41C0.5,285,147.08,344.86,247.32,441.66c3.49,3.37,2.67,3.28,2.67,3.28
		c1.65,2.03,4.01,3.21,6.5,3.21v0.01h0.01h0.01v-0.01c2.49,0,4.86-1.18,6.5-3.21c0,0-0.82,0.09,2.67-3.28
		C365.92,344.86,512.5,285,512.5,155.41C512.5,54.46,453.04-0.86,381.13,0.53z"/>
</g>
</svg>
