<?xml version="1.0" encoding="utf-8"?>
<!-- Generator: Adobe Illustrator 23.0.4, SVG Export Plug-In . SVG Version: 6.00 Build 0)  -->
<svg version="1.1" id="_x32_" xmlns="http://www.w3.org/2000/svg" xmlns:xlink="http://www.w3.org/1999/xlink" x="0px" y="0px"
	 viewBox="0 0 513 448.7" style="enable-background:new 0 0 513 448.7;" xml:space="preserve">
<style type="text/css">
	.st0{fill:#FFFFFF;stroke:#231815;stroke-width:3;stroke-miterlimit:10;}
</style>
<g>
	<path class="st0" d="M381.1,0.5C303.1,2,265,57.2,256.5,107.4C248,57.2,209.9,2,131.9,0.5C60-0.9,0.5,54.5,0.5,155.4
		c0,129.6,146.6,189.4,246.8,286.2c3.5,3.4,2.7,3.3,2.7,3.3c1.6,2,4,3.2,6.5,3.2v0h0h0v0c2.5,0,4.9-1.2,6.5-3.2c0,0-0.8,0.1,2.7-3.3
		C365.9,344.9,512.5,285,512.5,155.4C512.5,54.5,453-0.9,381.1,0.5z"/>
</g>
</svg>
