<?xml version="1.0" encoding="utf-8"?>
<!-- Generator: Adobe Illustrator 23.0.3, SVG Export Plug-In . SVG Version: 6.00 Build 0)  -->
<svg version="1.1" id="_x32_" xmlns="http://www.w3.org/2000/svg" xmlns:xlink="http://www.w3.org/1999/xlink" x="0px" y="0px"
	 viewBox="0 0 512 447.66" style="enable-background:new 0 0 512 447.66;" xml:space="preserve">
<style type="text/css">
	.st0{fill:#FF0000;}
</style>
<g>
	<path class="st0" d="M380.63,0.03C302.64,1.53,264.47,56.72,256,106.9C247.53,56.72,209.36,1.53,131.37,0.03
		C59.46-1.36,0,53.96,0,154.91c0,129.59,146.58,189.45,246.82,286.25c3.49,3.37,2.67,3.28,2.67,3.28c1.65,2.03,4.01,3.21,6.5,3.21
		v0.01c0,0,0.01,0,0.01,0c0,0,0.01,0,0.01,0v-0.01c2.49,0,4.86-1.18,6.5-3.21c0,0-0.82,0.09,2.67-3.28
		C365.42,344.36,512,284.49,512,154.91C512,53.96,452.54-1.36,380.63,0.03z"/>
</g>
</svg>
